<?xml version="1.0" encoding="UTF-8" standalone="no"?>
<svg
   id="svg156"
   viewBox="0 0 240.76 241"
   version="1.1"
   sodipodi:docname="BSI-IGZ-0478-2022.svg"
   inkscape:version="1.3.2 (091e20e, 2023-11-25, custom)"
   xmlns:inkscape="http://www.inkscape.org/namespaces/inkscape"
   xmlns:sodipodi="http://sodipodi.sourceforge.net/DTD/sodipodi-0.dtd"
   xmlns="http://www.w3.org/2000/svg"
   xmlns:svg="http://www.w3.org/2000/svg">
  <sodipodi:namedview
     id="namedview65"
     pagecolor="#ffffff"
     bordercolor="#666666"
     borderopacity="1.0"
     inkscape:showpageshadow="2"
     inkscape:pageopacity="0.0"
     inkscape:pagecheckerboard="0"
     inkscape:deskcolor="#d1d1d1"
     inkscape:zoom="2.9917012"
     inkscape:cx="120.5"
     inkscape:cy="120.5"
     inkscape:window-width="1920"
     inkscape:window-height="977"
     inkscape:window-x="-9"
     inkscape:window-y="-9"
     inkscape:window-maximized="1"
     inkscape:current-layer="svg156" />
  <defs
     id="defs1">
    <style
       id="style1">
      .cls-1 {
        letter-spacing: 0em;
      }
      .cls-2 {
        letter-spacing: -.02em;
      }
      .cls-3 {
        fill: none;
        stroke: #004b76;
      }
      .cls-4 {
        fill: #f9d100;
      }
      .cls-4, .cls-5, .cls-6, .cls-7, .cls-8, .cls-9, .cls-10, .cls-11 {
        fill-rule: evenodd;
      }
      .cls-4, .cls-5, .cls-6, .cls-7, .cls-8, .cls-9, .cls-10, .cls-11, .cls-12 {
        stroke-width: 0px;
      }
      .cls-13 {
        font-family: Calibri-Bold, Calibri;
        font-weight: 700;
      }
      .cls-13, .cls-14 {
        fill: #000;
        font-size: 11px;
      }
      .cls-13, .cls-14, .cls-15 {
        isolation: isolate;
      }
      .cls-5 {
        fill: #e30016;
      }
      .cls-6 {
        fill: #cb071b;
      }
      .cls-7 {
        fill: #e3b500;
      }
      .cls-8 {
        fill: #006eb1;
      }
      .cls-16 {
        letter-spacing: -.03em;
      }
      .cls-9 {
        fill: #1b1918;
      }
      .cls-14 {
        font-family: Calibri, Calibri;
      }
      .cls-17 {
        letter-spacing: -.02em;
      }
      .cls-10, .cls-12 {
        fill: #fff;
      }
      .cls-11 {
        fill: #004b76;
      }
    </style>
  </defs>
  <path
     id="path10"
     class="cls-10"
     d="M120.37,1.03c66.23,0,119.92,53.49,119.92,119.47h0c0,65.98-53.69,119.47-119.92,119.47S.45,186.48.45,120.5,54.14,1.03,120.37,1.03Z" />
  <g
     id="Layer1000">
    <path
       id="path12"
       class="cls-9"
       d="M102.39,28.66c0,.27-.03.5-.1.71-.07.2-.16.37-.27.52s-.25.26-.4.35-.31.16-.48.2v.02c.2.04.39.11.56.21.18.1.33.24.46.39.13.16.23.34.31.55.08.21.12.45.12.7,0,.31-.05.59-.16.84-.1.25-.27.47-.49.66s-.5.33-.83.44c-.34.1-.73.16-1.2.16h-1.58v-7.72h1.49c.45,0,.84.05,1.17.14.32.09.59.23.8.4.21.17.36.38.45.62.09.24.14.51.14.81h.01ZM101.41,28.7c0-.36-.13-.65-.38-.88s-.65-.35-1.2-.35h-.51v2.66h.5c.52,0,.92-.13,1.19-.38.27-.25.4-.6.4-1.05ZM101.56,32.26c0-.42-.14-.75-.41-.99-.27-.24-.66-.36-1.17-.36h-.66v2.71h.6c.57,0,.99-.11,1.25-.34s.39-.57.39-1.01h0ZM107.55,34.42h-.83v-.6h-.02s-.07.11-.15.2c-.07.09-.17.17-.29.25s-.26.15-.42.21c-.16.06-.35.09-.55.09-.24,0-.45-.04-.64-.11s-.35-.18-.49-.34c-.13-.16-.24-.36-.31-.61s-.11-.56-.11-.92v-3.53h.91v3.46c0,.45.07.77.22.96s.37.29.68.29c.26,0,.48-.07.66-.2s.32-.26.42-.39v-4.12h.91v5.37h0ZM111.87,34.42v-3.46c0-.46-.08-.78-.23-.98-.15-.2-.39-.3-.7-.3-.27,0-.49.07-.67.2-.18.13-.32.27-.43.39v4.14h-.91v-5.37h.83v.6h.02s.07-.11.15-.2c.07-.09.17-.17.29-.25s.26-.15.42-.21c.16-.06.35-.09.56-.09.24,0,.45.04.65.11.19.07.36.18.49.34s.24.36.31.61.11.56.11.92v3.53h-.91l.02.02ZM113.88,31.81c0-.54.07-1,.21-1.37s.32-.66.55-.88c.22-.22.48-.38.76-.48.28-.09.57-.14.85-.14.17,0,.32.01.45.04s.23.06.31.1v-2.57l.91-.1v8.02h-.83v-.57h-.02s-.06.11-.12.18c-.06.08-.14.16-.25.24-.1.08-.24.15-.39.2-.16.06-.34.08-.55.08-.25,0-.49-.05-.72-.15-.23-.1-.43-.26-.6-.48s-.31-.5-.41-.85c-.1-.35-.15-.77-.15-1.26h0ZM116.01,33.75c.14,0,.27-.02.38-.06s.21-.08.29-.14.15-.11.21-.17c.06-.06.1-.11.13-.16v-3.31c-.08-.05-.18-.1-.29-.13-.11-.04-.24-.06-.41-.06-.21,0-.4.04-.59.11-.18.07-.34.19-.48.35-.13.16-.24.38-.32.64s-.12.58-.12.96.03.68.1.93c.06.25.15.45.26.6.11.15.24.26.38.33.14.07.29.1.45.1h.01ZM122.75,30.86c0,.23,0,.43-.02.6-.01.17-.03.32-.04.44h-2.74c.03.63.17,1.1.41,1.4.24.3.59.45,1.05.45.16,0,.3-.02.43-.06s.24-.08.33-.13c.09-.05.17-.1.24-.16.06-.05.11-.09.14-.12l.34.64s-.09.09-.17.16c-.07.07-.18.14-.3.21-.13.07-.28.13-.47.18s-.41.08-.66.08c-.34,0-.64-.06-.91-.17-.27-.11-.5-.29-.69-.52-.19-.24-.34-.53-.44-.9-.1-.36-.16-.8-.16-1.3s.05-.89.16-1.24.26-.63.44-.86c.19-.22.4-.39.65-.5s.51-.16.79-.16c.51,0,.92.16,1.21.49.29.32.44.81.44,1.46h-.03ZM121.05,29.65c-.32,0-.58.13-.77.4-.19.27-.31.66-.34,1.16h1.96s.01-.09.02-.16v-.23c0-.37-.07-.66-.22-.87-.15-.21-.37-.31-.65-.31h0ZM126.27,30.13c-.06-.07-.17-.16-.32-.27-.16-.12-.36-.17-.62-.17-.24,0-.42.06-.55.17-.13.11-.19.25-.19.4,0,.2.06.37.17.5.12.13.29.27.53.42l.34.2c.37.22.65.45.86.7.21.25.31.57.31.97,0,.43-.15.78-.44,1.07s-.72.44-1.27.44c-.22,0-.41-.02-.57-.07-.16-.04-.31-.1-.43-.16s-.23-.13-.31-.2c-.08-.07-.15-.14-.2-.2l.44-.72s.1.1.16.16c.06.06.14.12.23.17.09.06.19.1.3.14s.24.06.39.06c.27,0,.47-.06.62-.18.14-.12.21-.26.21-.44,0-.13-.02-.24-.05-.33s-.08-.18-.15-.25-.15-.15-.25-.21c-.1-.07-.21-.14-.34-.22l-.34-.21c-.34-.22-.6-.44-.79-.68s-.29-.54-.29-.92c0-.2.04-.39.12-.55.08-.17.19-.31.33-.44.14-.12.31-.22.5-.29.19-.07.39-.11.61-.11s.39.02.54.06c.15.04.28.09.39.16.11.06.2.13.27.19.07.06.13.12.17.16l-.39.65h0ZM127.56,33.05c0-.31.06-.57.18-.78s.28-.38.48-.51c.2-.13.44-.22.71-.28.27-.06.56-.08.87-.08h.28v-.51c0-.46-.08-.77-.24-.94s-.39-.26-.68-.26c-.27,0-.49.06-.67.17-.18.12-.32.22-.42.31l-.38-.6c.06-.06.14-.13.23-.2.09-.07.21-.15.34-.21.13-.07.29-.12.46-.17s.37-.07.58-.07c.55,0,.97.15,1.25.46s.43.8.43,1.48v2.45c0,.23,0,.46.02.68,0,.22.03.37.04.44h-.86l-.03-.59h-.02c-.03.07-.07.14-.13.23s-.13.16-.22.24c-.09.07-.2.13-.32.18-.13.05-.28.08-.45.08-.2,0-.39-.04-.56-.11-.18-.07-.33-.18-.46-.31s-.23-.29-.3-.48c-.07-.18-.11-.38-.11-.6l-.02-.02ZM129.18,33.78c.13,0,.24-.02.34-.06.1-.04.18-.08.25-.13s.13-.11.18-.17c.05-.06.09-.12.13-.16v-1.19h-.29c-.43.03-.76.1-.98.24-.22.13-.34.35-.34.65,0,.28.06.48.19.62s.3.21.53.21h-.01ZM135.15,34.42v-3.46c0-.44-.06-.76-.19-.95s-.33-.29-.62-.29c-.15,0-.28.02-.4.06-.12.04-.22.08-.31.14s-.17.12-.23.18c-.07.07-.12.13-.17.18v4.14h-.91v-5.37h.83v.6h.02c.04-.06.09-.13.17-.22.07-.09.17-.17.28-.25s.24-.14.39-.2c.15-.05.32-.08.5-.08.61,0,1.04.24,1.3.72.05-.07.12-.16.21-.24.09-.09.19-.16.31-.24.12-.07.25-.13.4-.17s.31-.07.49-.07c1.09,0,1.63.63,1.63,1.9v3.6h-.91v-3.46c0-.44-.08-.76-.24-.95s-.39-.29-.69-.29c-.25,0-.46.06-.63.18s-.3.24-.4.35c0,.08.03.17.03.26s0,.19,0,.3v3.6h-.91l.04.03ZM142.52,29.78h-1.17v2.98c0,.38.05.64.15.78.1.14.26.21.49.21.13,0,.25-.02.35-.06s.17-.07.21-.1l.12.73s-.13.08-.27.14c-.14.06-.33.09-.57.09-.46,0-.81-.13-1.04-.39s-.35-.68-.35-1.28v-3.1h-.65v-.6l.65-.13.1-1.5h.81v1.5h1.29l-.11.74h0ZM100.41,41.07h-1.1v4.63h-.91v-4.63h-.65v-.6l.65-.12v-1.07c0-.29.04-.54.12-.75s.19-.38.32-.51c.13-.13.29-.23.47-.29s.37-.09.57-.09.36.03.49.08c.13.05.22.09.27.12l-.19.75s-.11-.06-.19-.1c-.08-.03-.18-.05-.3-.05-.22,0-.38.07-.49.2s-.17.38-.17.74v.96h1.21l-.11.74h.01ZM105.07,45.71h-.83v-.6h-.02s-.07.11-.15.2c-.07.09-.17.17-.29.25s-.26.15-.42.21c-.16.06-.35.09-.55.09-.24,0-.45-.04-.64-.11s-.35-.18-.49-.34-.24-.36-.31-.61-.11-.56-.11-.92v-3.53h.91v3.46c0,.45.07.77.22.96s.37.29.68.29c.26,0,.48-.07.66-.2s.32-.26.43-.39v-4.12h.91v5.37h0ZM102.84,38.79c0,.17-.05.31-.16.41-.1.1-.23.16-.38.16s-.28-.05-.38-.16c-.1-.1-.16-.24-.16-.41s.05-.31.16-.41c.1-.1.23-.16.38-.16s.28.05.38.16c.1.1.16.24.16.41ZM104.56,38.79c0,.17-.05.31-.16.41-.1.1-.23.16-.38.16s-.28-.05-.38-.16c-.1-.1-.16-.24-.16-.41s.05-.31.16-.41c.1-.1.23-.16.38-.16s.28.05.38.16c.1.1.16.24.16.41ZM108.81,41.13s-.07-.03-.15-.06c-.07-.02-.18-.03-.3-.03-.28,0-.51.08-.67.23-.16.15-.27.32-.34.5v3.94h-.91v-5.37h.83v.73h.02c.04-.1.09-.21.15-.31.06-.1.13-.19.22-.27.09-.08.2-.14.32-.18s.27-.07.44-.07c.13,0,.23,0,.31.03.08.02.14.04.18.06l-.11.81h.01ZM114.93,39.17s-.08-.07-.15-.13-.16-.11-.27-.16c-.11-.05-.24-.1-.38-.13-.15-.04-.31-.06-.49-.06-.34,0-.59.09-.76.27-.17.18-.26.39-.26.63,0,.15.02.29.06.41.04.13.1.25.19.37s.19.25.32.37.28.26.46.4l.63.51c.18.15.35.3.51.46s.3.32.41.5c.12.18.21.37.27.57.07.21.1.43.1.69,0,.59-.18,1.07-.55,1.43s-.9.54-1.6.54c-.28,0-.52-.03-.73-.08-.21-.05-.4-.12-.55-.19-.16-.07-.29-.15-.39-.23-.1-.08-.18-.14-.23-.2l.39-.85s.11.1.2.18c.09.07.2.15.32.22.13.07.27.14.43.19s.34.08.54.08c.38,0,.67-.1.88-.29.21-.19.31-.42.31-.68,0-.16-.02-.31-.06-.45-.04-.13-.1-.26-.18-.39s-.18-.24-.3-.36-.26-.25-.42-.38l-.63-.53c-.22-.18-.41-.35-.57-.51-.16-.16-.3-.33-.42-.5-.12-.18-.2-.37-.26-.57s-.09-.44-.09-.71c0-.25.05-.48.14-.69.09-.22.23-.4.4-.56s.38-.28.62-.37c.24-.09.52-.13.82-.13.25,0,.48.02.67.07.19.05.36.1.5.17.14.06.25.13.33.2s.15.12.19.15c0,0-.4.74-.4.74ZM117.57,45.71h-.91v-5.37h.91v5.37ZM117.12,39.04c-.19,0-.34-.06-.45-.18s-.17-.28-.17-.47.06-.34.17-.46.26-.18.45-.18c.18,0,.32.06.44.18.11.12.17.27.17.46s-.06.35-.17.47c-.11.12-.26.18-.44.18ZM121.94,41.38s-.06-.06-.11-.1-.11-.09-.18-.13-.16-.08-.27-.12c-.1-.03-.22-.05-.36-.05-.19,0-.37.04-.54.11s-.31.18-.44.34c-.12.16-.22.36-.29.61s-.11.55-.11.91c0,.4.03.73.1,1,.06.27.15.48.26.64s.25.28.41.35.34.11.53.11c.28,0,.49-.05.63-.15.15-.1.25-.18.31-.24l.37.63s-.09.1-.16.16c-.07.06-.16.13-.27.18s-.25.11-.41.15-.35.06-.55.06c-.3,0-.58-.05-.84-.15-.26-.1-.49-.26-.68-.48s-.35-.52-.46-.87c-.11-.36-.17-.8-.17-1.33s.07-.95.2-1.31.31-.65.53-.87c.22-.22.46-.38.72-.48s.53-.15.8-.15c.2,0,.38.02.53.06s.28.08.39.14c.11.06.2.12.27.18s.13.12.17.16c0,0-.38.64-.38.64ZM126.2,45.71v-3.46c0-.46-.08-.78-.23-.98s-.39-.3-.7-.3c-.27,0-.49.07-.67.2s-.32.26-.43.39v4.14h-.91v-7.92l.91-.1v3.19h.02s.08-.1.14-.18c.06-.07.15-.15.26-.22s.25-.14.41-.2.35-.08.56-.08c.47,0,.84.15,1.12.46.28.31.41.81.41,1.52v3.53h-.91.02ZM131.91,42.15c0,.23,0,.43-.02.6,0,.17-.03.32-.04.44h-2.74c.03.63.17,1.1.41,1.4.24.3.59.45,1.05.45.16,0,.3-.02.42-.06.13-.04.24-.08.33-.13s.17-.1.23-.16c.06-.05.11-.09.14-.12l.34.64s-.09.09-.17.16c-.07.07-.18.14-.3.21s-.28.13-.47.18-.41.08-.66.08c-.34,0-.64-.06-.91-.17-.27-.11-.5-.29-.69-.52-.19-.24-.34-.53-.44-.9-.1-.36-.16-.8-.16-1.3s.05-.89.16-1.24c.11-.35.26-.63.44-.86.19-.22.4-.39.65-.5s.51-.16.79-.16c.51,0,.92.16,1.21.49.29.32.44.81.44,1.46h0ZM130.21,40.94c-.32,0-.58.13-.77.4s-.31.66-.34,1.16h1.96s0-.09.02-.16v-.23c0-.37-.07-.66-.22-.87s-.37-.31-.65-.31h0ZM135.48,41.13s-.07-.03-.15-.06c-.07-.02-.18-.03-.3-.03-.28,0-.51.08-.67.23-.16.15-.27.32-.34.5v3.94h-.91v-5.37h.83v.73h.02c.04-.1.09-.21.15-.31.06-.1.13-.19.22-.27s.2-.14.32-.18c.12-.04.27-.07.44-.07.13,0,.23,0,.31.03s.14.04.18.06l-.11.81h0ZM139.3,45.71v-3.46c0-.46-.08-.78-.23-.98s-.39-.3-.7-.3c-.27,0-.49.07-.67.2s-.32.26-.42.39v4.14h-.91v-7.92l.91-.1v3.19h.02s.08-.1.14-.18c.06-.07.15-.15.26-.22s.25-.14.41-.2.35-.08.56-.08c.47,0,.84.15,1.12.46.28.31.41.81.41,1.52v3.53h-.91,0ZM145.01,42.15c0,.23,0,.43-.02.6,0,.17-.03.32-.04.44h-2.74c.03.63.17,1.1.41,1.4.24.3.59.45,1.05.45.16,0,.3-.02.42-.06.13-.04.24-.08.33-.13s.17-.1.23-.16c.06-.05.11-.09.14-.12l.34.64s-.09.09-.17.16c-.07.07-.18.14-.3.21s-.28.13-.47.18-.41.08-.66.08c-.34,0-.64-.06-.91-.17-.27-.11-.5-.29-.69-.52-.19-.24-.34-.53-.44-.9-.1-.36-.16-.8-.16-1.3s.05-.89.16-1.24c.11-.35.26-.63.44-.86.19-.22.4-.39.65-.5s.51-.16.79-.16c.51,0,.92.16,1.21.49.29.32.44.81.44,1.46h0ZM143.31,40.94c-.32,0-.58.13-.77.4s-.31.66-.34,1.16h1.96s0-.09.02-.16v-.23c0-.37-.07-.66-.22-.87s-.37-.31-.65-.31h0ZM147.12,45.71h-.91v-5.37h.91v5.37ZM146.67,39.04c-.19,0-.34-.06-.45-.18s-.17-.28-.17-.47.06-.34.17-.46.26-.18.45-.18c.18,0,.32.06.44.18.11.12.17.27.17.46s-.06.35-.17.47c-.11.12-.26.18-.44.18ZM150.8,41.07h-1.17v2.98c0,.38.05.64.15.78.1.14.26.21.49.21.13,0,.25-.02.35-.06s.17-.07.21-.1l.12.73s-.13.08-.27.14c-.14.06-.33.1-.57.1-.46,0-.81-.13-1.04-.39s-.35-.68-.35-1.28v-3.1h-.65v-.6l.65-.13.1-1.5h.81v1.5h1.29l-.11.74v-.02ZM155.1,45.71h-.91v-5.37h.91v5.37ZM154.66,39.04c-.19,0-.34-.06-.45-.18s-.17-.28-.17-.47.06-.34.17-.46.26-.18.45-.18c.18,0,.32.06.44.18.11.12.17.27.17.46s-.06.35-.17.47c-.11.12-.26.18-.44.18ZM159.42,45.71v-3.46c0-.46-.08-.78-.23-.98s-.39-.3-.7-.3c-.27,0-.49.07-.67.2s-.32.26-.42.39v4.14h-.91v-5.37h.83v.6h.02s.07-.11.15-.2c.07-.09.17-.17.29-.25s.26-.15.43-.21c.16-.06.35-.09.56-.09.24,0,.45.04.65.11.19.07.36.18.49.34s.24.36.31.61c.07.25.11.56.11.92v3.53h-.91v.02ZM163.81,43.1c0-.54.07-1,.21-1.37s.32-.66.55-.88c.22-.22.48-.38.76-.48.28-.09.57-.14.85-.14.17,0,.32,0,.45.04s.23.06.31.1v-2.58l.91-.1v8.02h-.83v-.57h-.02s-.06.11-.12.18c-.06.08-.14.16-.25.24s-.24.15-.39.2c-.16.06-.34.08-.55.08-.25,0-.49-.05-.72-.15-.23-.1-.43-.26-.6-.48-.17-.22-.31-.5-.41-.85s-.15-.77-.15-1.26h0ZM165.93,45.04c.14,0,.27-.02.38-.06s.21-.08.29-.14c.08-.06.15-.11.21-.17.06-.06.1-.11.13-.16v-3.31c-.08-.05-.18-.1-.29-.13-.11-.04-.24-.06-.41-.06-.21,0-.4.04-.59.11-.18.07-.34.19-.48.35-.13.16-.24.38-.32.64s-.12.58-.12.96.03.68.1.93c.06.25.15.45.26.6.11.15.24.26.38.33.14.07.29.1.45.1h0ZM172.67,42.15c0,.23,0,.43-.02.6,0,.17-.03.32-.04.44h-2.74c.03.63.17,1.1.41,1.4.24.3.59.45,1.05.45.16,0,.3-.02.42-.06.13-.04.24-.08.33-.13s.17-.1.23-.16c.06-.05.11-.09.14-.12l.34.64s-.09.09-.17.16c-.07.07-.18.14-.3.21s-.28.13-.47.18-.41.08-.66.08c-.34,0-.64-.06-.91-.17-.27-.11-.5-.29-.69-.52-.19-.24-.34-.53-.44-.9-.1-.36-.16-.8-.16-1.3s.05-.89.16-1.24c.11-.35.26-.63.44-.86.19-.22.4-.39.65-.5s.51-.16.79-.16c.51,0,.92.16,1.21.49.29.32.44.81.44,1.46h0ZM170.97,40.94c-.32,0-.58.13-.77.4s-.31.66-.34,1.16h1.96s0-.09.02-.16v-.23c0-.37-.07-.66-.22-.87s-.37-.31-.65-.31h0ZM176.24,41.13s-.07-.03-.15-.06c-.07-.02-.18-.03-.3-.03-.28,0-.51.08-.67.23-.16.15-.27.32-.34.5v3.94h-.91v-5.37h.83v.73h.02c.04-.1.09-.21.15-.31.06-.1.13-.19.22-.27s.2-.14.32-.18c.12-.04.27-.07.44-.07.13,0,.23,0,.31.03s.14.04.18.06l-.11.81h0ZM98.74,49.94h-.82v-.67h2.61v.67h-.82v6.35h.84v.71h-2.65v-.71h.84s0-6.35,0-6.35ZM104.55,57v-3.46c0-.46-.08-.78-.23-.98s-.39-.3-.7-.3c-.27,0-.49.07-.67.2s-.32.26-.43.39v4.14h-.91v-5.37h.83v.6h.02s.07-.11.15-.2c.07-.09.17-.17.29-.25s.26-.15.42-.21c.16-.06.35-.09.56-.09.24,0,.45.04.65.11.19.07.36.18.49.34s.24.36.31.61.11.56.11.92v3.53h-.91l.02.02ZM109.07,52.36h-1.1v4.63h-.91v-4.63h-.65v-.6l.65-.12v-1.07c0-.29.04-.54.12-.75s.19-.38.32-.52c.13-.13.29-.23.47-.29s.37-.09.57-.09.36.03.49.08c.13.05.22.09.27.12l-.19.75s-.11-.06-.19-.09-.18-.05-.3-.05c-.22,0-.38.07-.49.2s-.17.38-.17.74v.96h1.21l-.11.74h.01ZM109.62,54.31c0-.49.06-.92.17-1.28.12-.36.27-.65.47-.88.2-.23.42-.4.68-.5.26-.11.53-.16.82-.16s.57.05.83.16c.25.11.47.28.66.5.19.23.33.52.44.88s.16.78.16,1.28-.06.93-.17,1.29-.27.65-.46.88c-.2.23-.43.39-.69.5-.26.1-.54.16-.83.16s-.57-.05-.83-.16c-.25-.1-.47-.27-.66-.5s-.33-.52-.44-.87-.16-.79-.16-1.29h.01ZM112.92,54.31c0-.72-.1-1.24-.31-1.56s-.5-.49-.87-.49-.66.16-.87.49c-.21.32-.31.85-.31,1.56s.1,1.23.31,1.54.5.47.87.47.66-.16.87-.47.31-.83.31-1.54ZM117.36,52.42s-.07-.03-.15-.06-.18-.03-.3-.03c-.28,0-.51.08-.67.23-.16.15-.27.32-.34.5v3.94h-.91v-5.37h.83v.73h.02c.04-.1.09-.21.15-.31.06-.1.13-.19.22-.27.09-.08.2-.14.32-.18.12-.05.27-.07.44-.07.13,0,.23,0,.31.03.08.02.14.04.18.06l-.11.81h.01ZM121.07,57v-3.46c0-.44-.06-.76-.19-.95-.13-.19-.33-.29-.61-.29-.15,0-.28.02-.4.06s-.22.08-.31.14-.17.12-.24.18-.12.13-.17.18v4.14h-.91v-5.37h.83v.6h.02c.04-.06.09-.13.17-.22.07-.09.17-.17.28-.25s.24-.14.39-.2c.15-.05.32-.08.5-.08.61,0,1.04.24,1.3.72.05-.07.12-.15.21-.24s.19-.16.31-.24c.12-.07.25-.13.4-.17.15-.04.31-.07.49-.07,1.09,0,1.63.63,1.63,1.9v3.6h-.91v-3.46c0-.44-.08-.76-.23-.95-.16-.19-.39-.29-.69-.29-.25,0-.46.06-.63.18s-.3.24-.4.35c.01.08.03.17.03.26s.01.19.01.3v3.6h-.91l.03.03ZM125.84,55.63c0-.31.06-.57.18-.78s.28-.38.48-.51c.2-.13.44-.22.71-.28.27-.06.56-.08.87-.08h.28v-.51c0-.46-.08-.77-.24-.94s-.39-.26-.68-.26c-.27,0-.49.06-.67.17-.18.12-.32.22-.42.31l-.38-.6c.06-.06.14-.13.23-.2.09-.07.21-.15.34-.21s.29-.12.46-.17c.17-.04.37-.07.58-.07.55,0,.97.15,1.25.46.28.31.42.8.42,1.48v2.45c0,.23,0,.46.02.68,0,.22.03.37.04.44h-.86l-.03-.59h-.02c-.03.07-.07.14-.13.23s-.13.16-.22.24c-.09.07-.2.13-.32.18-.13.05-.28.08-.45.08-.2,0-.39-.04-.56-.11-.18-.07-.33-.18-.46-.31s-.23-.29-.3-.48c-.07-.18-.11-.38-.11-.6h0v-.02ZM127.46,56.36c.13,0,.24-.02.34-.06s.18-.08.25-.13c.07-.05.13-.11.18-.17.05-.06.09-.12.13-.16v-1.19h-.29c-.43.03-.76.1-.98.24-.22.13-.34.35-.34.65,0,.28.06.48.19.62.13.14.3.21.53.21h-.01ZM132.9,52.36h-1.17v2.98c0,.38.05.64.15.78.1.14.26.21.49.21.13,0,.25-.02.35-.06s.17-.07.21-.1l.12.73s-.13.08-.27.14c-.14.06-.33.1-.57.1-.46,0-.81-.13-1.04-.39s-.35-.68-.35-1.28v-3.1h-.65v-.6l.65-.13.1-1.5h.81v1.5h1.29l-.11.74v-.02ZM134.84,57h-.91v-5.37h.91v5.37ZM134.39,50.32c-.19,0-.34-.06-.45-.18s-.17-.28-.17-.47.06-.34.17-.46.26-.18.45-.18.32.06.44.18c.11.12.17.27.17.46s-.06.35-.17.47c-.11.12-.26.18-.44.18ZM135.98,54.31c0-.49.06-.92.17-1.28.12-.36.27-.65.47-.88s.43-.4.68-.5c.26-.11.53-.16.82-.16s.57.05.83.16c.25.11.47.28.66.5.19.23.33.52.44.88s.16.78.16,1.28-.06.93-.17,1.29-.27.65-.46.88c-.2.23-.43.39-.69.5-.26.1-.54.16-.83.16s-.57-.05-.83-.16c-.25-.1-.47-.27-.66-.5s-.33-.52-.44-.87-.16-.79-.16-1.29h.01ZM139.28,54.31c0-.72-.1-1.24-.31-1.56-.21-.32-.5-.49-.87-.49s-.66.16-.87.49c-.21.32-.31.85-.31,1.56s.1,1.23.31,1.54c.21.31.5.47.87.47s.66-.16.87-.47c.21-.31.31-.83.31-1.54ZM144.29,57v-3.46c0-.46-.08-.78-.23-.98s-.39-.3-.7-.3c-.27,0-.49.07-.67.2s-.32.26-.43.39v4.14h-.91v-5.37h.83v.6h.02s.07-.11.15-.2c.07-.09.17-.17.29-.25s.26-.15.42-.21c.16-.06.35-.09.56-.09.24,0,.45.04.65.11.19.07.36.18.49.34s.24.36.31.61c.07.25.11.56.11.92v3.53h-.91l.02.02ZM148.86,52.71c-.06-.07-.17-.16-.32-.27-.16-.12-.36-.17-.62-.17-.24,0-.42.06-.55.17-.13.11-.19.25-.19.4,0,.2.06.37.17.5.12.13.29.27.53.42l.34.2c.37.22.65.45.86.7s.31.57.31.97c0,.43-.15.78-.44,1.07-.29.29-.72.44-1.27.44-.22,0-.41-.02-.57-.07-.16-.04-.31-.1-.43-.16s-.23-.13-.31-.2-.15-.14-.2-.2l.44-.72s.1.1.16.16.14.12.23.17c.09.06.19.1.3.14s.24.06.39.06c.27,0,.47-.06.62-.18.14-.12.21-.27.21-.44,0-.13-.02-.24-.05-.33s-.08-.18-.15-.25c-.07-.07-.15-.15-.25-.21-.1-.07-.21-.14-.34-.22l-.34-.21c-.34-.22-.6-.44-.79-.68-.19-.24-.29-.54-.29-.92,0-.2.04-.39.12-.55.08-.17.19-.31.33-.44.14-.12.31-.22.5-.29s.39-.11.61-.11.39.02.54.06.28.09.39.16c.11.06.2.13.27.19.07.06.13.12.17.16l-.39.65h0ZM152.76,52.36h-1.17v2.98c0,.38.05.64.15.78.1.14.26.21.49.21.13,0,.25-.02.35-.06s.17-.07.21-.1l.12.73s-.13.08-.27.14c-.14.06-.33.1-.57.1-.46,0-.81-.13-1.04-.39s-.35-.68-.35-1.28v-3.1h-.65v-.6l.65-.13.1-1.5h.81v1.5h1.29l-.11.74v-.02ZM157.15,53.44c0,.23,0,.43-.02.6,0,.17-.03.32-.04.44h-2.74c.03.63.17,1.1.41,1.4.24.3.59.45,1.05.45.16,0,.3-.02.42-.06.13-.04.24-.08.33-.13s.17-.1.23-.16.11-.09.14-.12l.34.64s-.09.09-.17.16c-.07.07-.18.14-.3.21-.13.07-.28.13-.47.18s-.41.08-.66.08c-.34,0-.64-.06-.91-.17-.27-.11-.5-.29-.69-.52-.19-.24-.34-.53-.44-.9-.1-.36-.16-.8-.16-1.3s.05-.89.16-1.24c.11-.35.26-.63.44-.86.19-.22.4-.39.65-.5s.51-.16.79-.16c.51,0,.92.16,1.21.49.29.32.44.81.44,1.46h0ZM155.45,52.23c-.32,0-.58.13-.77.4s-.31.66-.34,1.16h1.96s0-.09.02-.16v-.23c0-.37-.07-.66-.22-.87s-.37-.31-.65-.31h0ZM161.34,52.66s-.06-.06-.11-.1c-.05-.04-.11-.09-.18-.13-.07-.04-.16-.08-.27-.12-.1-.03-.22-.05-.36-.05-.19,0-.37.04-.54.11s-.31.18-.44.34c-.12.16-.22.36-.29.61-.07.25-.11.55-.11.91,0,.4.03.73.1,1,.06.27.15.48.26.64s.25.28.41.35.34.11.53.11c.28,0,.49-.05.63-.15.15-.1.25-.18.31-.24l.37.63s-.09.1-.16.16-.16.12-.27.18-.25.11-.41.15-.35.06-.55.06c-.3,0-.58-.05-.84-.15-.26-.1-.49-.26-.68-.48-.19-.22-.35-.51-.46-.87s-.17-.8-.17-1.33.07-.95.2-1.31c.13-.36.31-.65.53-.87.22-.22.46-.38.72-.48s.53-.15.8-.15c.2,0,.38.02.53.06s.28.08.39.14c.11.06.2.12.27.18s.13.12.17.16l-.38.64ZM165.61,57v-3.46c0-.46-.08-.78-.23-.98s-.39-.3-.7-.3c-.27,0-.49.07-.67.2s-.32.26-.42.39v4.14h-.91v-7.91l.91-.1v3.19h.02s.08-.1.14-.18c.06-.07.15-.15.26-.22s.25-.14.41-.2.35-.08.56-.08c.47,0,.84.15,1.12.46.28.31.41.81.41,1.52v3.53h-.91,0ZM170.8,57v-3.46c0-.46-.08-.78-.23-.98s-.39-.3-.7-.3c-.27,0-.49.07-.67.2s-.32.26-.43.39v4.14h-.91v-5.37h.83v.6h.02s.07-.11.15-.2c.07-.09.17-.17.29-.25s.26-.15.42-.21c.16-.06.35-.09.56-.09.24,0,.45.04.65.11.19.07.36.18.49.34s.24.36.31.61c.07.25.11.56.11.92v3.53h-.91l.02.02ZM173.96,57h-.91v-5.37h.91v5.37ZM173.51,50.32c-.19,0-.34-.06-.45-.18s-.17-.28-.17-.47.06-.34.17-.46.26-.18.45-.18.32.06.44.18c.11.12.17.27.17.46s-.06.35-.17.47c-.11.12-.26.18-.44.18ZM177.37,54.09l1.85,2.91h-1.08l-1.51-2.51h-.37v2.51h-.91v-7.91l.91-.1v4.74h.38l1.44-2.09h1.07l-1.78,2.46h0Z" />
    <path
       id="path14"
       class="cls-4"
       d="M89.94,64.52h1.41v18.82h-3.29v-18.82h1.88Z" />
    <path
       id="path16"
       class="cls-5"
       d="M89.94,45.61h1.41v18.91h-3.29v-18.91h1.88Z" />
    <path
       id="path18"
       class="cls-9"
       d="M79.5,33.47c.96,1.52,1.72,1.5,2.85,1.5-.94-.72-1.56-1.65-1.86-2.12l-1.76-2.81c-.17-.87-.62-1.68-1.29-2.29.23-.09.41-.18.53-.26-1.15,0-2.28-.58-2.91-.58-.4,0-.66.24-.66.56.03.35.39.72,1.06.72.15,0,.35-.02.56-.06.36.51.66.97.66,1.63,0,1.23-1.47,2.19-2.96,2.19h-.25c-.13-.31-.58-.82-.58-1.4,0-.98.64-1.78.64-2.75,0-.6-.29-.98-.41-1.13.18-.17.38-.38.43-.52-.11.05-.23.05-.42.05-.71,0-1.29-.19-1.86-.19-.32,0-.41.1-.41.2,0,.03,0,.07.01.09-.12-.05-.23-.08-.37-.1-.17-.03-.35-.05-.54-.05-.69,0-.93.29-.93.54,0,.21.16.59.35.88.27-.13.59-.23.74-.23.36,0,.69.35.86.76-.25.03-.29.04-.54.04-.67,0-1.13-.24-1.22-.24,0,0-.03,0-.03.02,0,.09.19.34.56.48.49.18,1.23.26,1.36.28,0,.02-.13.26-.26.3-.03,0-.05.01-.09,0-.52-.1-.66-.15-1.31-.39-.02,0-.03,0-.03.03,0,.26.67.83,1.27,1.05-.5.64-1.13,1.29-1.42,2.29h-.25c-1.49,0-2.96-.96-2.96-2.19,0-.66.29-1.12.66-1.63.21.04.41.06.56.06.67,0,1.04-.36,1.07-.72,0-.32-.26-.56-.66-.56-.63,0-1.76.58-2.91.58.11.09.3.18.53.26-.67.6-1.12,1.42-1.29,2.29l-1.76,2.81c-.3.47-.92,1.4-1.86,2.12,1.14,0,1.89.03,2.85-1.5l.9-1.44c.07.19.15.37.25.55l-1.79,2.87c-.3.48-.92,1.39-1.86,2.12,1.14,0,1.89.03,2.85-1.5l1.54-2.47c.12.12.24.24.36.36l-2.18,3.49c-.3.48-.91,1.39-1.86,2.12,1.14,0,1.89.03,2.85-1.5l2.12-3.4c.14.09.28.17.43.26l-2.59,4.15c-.3.48-.91,1.39-1.86,2.12,1.14,0,1.89.03,2.85-1.5l2.67-4.27c.16.06.32.12.48.17l-3.01,4.83c-.29.47-.92,1.4-1.86,2.12,1.14,0,1.89.03,2.85-1.5l3.21-5.15s.07,0,.1.02c.09.28.15.54.15.8,0,1.62-1.06,3.05-2.33,4.15.08.04.22.05.35.05.26,0,.43,0,.55-.03-.3.67-.93,1.54-1.25,1.99-.42-.08-1.02-.13-1.42-.13s-.46.24-.46.46c0,.38.18.68.38.85.08-.19.23-.45,1-.45h.08c-.22.25-.93.82-.93,1.27,0,.3.33.76.77.76-.03-.1-.02-.19-.02-.25,0-.37.33-.8.6-1.11v.19c0,.88.08,1.28.63,1.28.27,0,.46-.15.53-.19-.36-.33-.38-.59-.38-1.08v-.43c0-.11,0-.26-.02-.37.2-.03.28-.03.43-.03,0,0,.79-.06.98.35.21-.2.53-.47.53-.78,0-.2-.1-.43-.5-.43-.15,0-.64.09-1.04.09.11-.24.59-.95,1.01-1.47.06.2.16.42.38.59.03-.33.22-1.38.74-1.99.06.41.14.84.14,1.73,0,2.18-.52,3.78-1.63,4.09.14.25.45.48.77.48.41,0,.63-.46.85-.89.12.32.44,1.1.77,1.1s.65-.78.77-1.1c.23.43.45.89.85.89.32,0,.62-.23.77-.48-1.11-.31-1.63-1.91-1.63-4.09,0-.89.08-1.32.14-1.73.52.61.71,1.66.74,1.99.22-.18.32-.39.38-.59.42.51.9,1.22,1.01,1.47-.41,0-.89-.09-1.04-.09-.41,0-.5.23-.5.43,0,.31.31.58.53.78.19-.41.98-.35.98-.35.15,0,.23,0,.43.03-.02.11-.02.26-.02.37v.43c0,.49-.02.75-.38,1.08.06.04.25.19.52.19.56,0,.64-.4.64-1.28v-.19c.28.3.6.74.6,1.11,0,.07,0,.16-.02.25.44,0,.77-.45.77-.76,0-.46-.7-1.03-.93-1.27h.08c.77,0,.92.26,1,.45.21-.17.38-.47.38-.85,0-.22-.05-.46-.46-.46s-1,.06-1.42.13c-.32-.45-.95-1.31-1.25-1.99.12.02.29.03.55.03.13,0,.27,0,.35-.05-1.27-1.1-2.33-2.53-2.33-4.15,0-.26.06-.52.15-.8.03,0,.06,0,.1-.02l3.21,5.15c.96,1.52,1.72,1.5,2.85,1.5-.94-.72-1.56-1.65-1.86-2.12l-3.01-4.83c.16-.05.32-.11.48-.17l2.67,4.27c.96,1.52,1.72,1.5,2.85,1.5-.95-.73-1.56-1.64-1.86-2.12l-2.59-4.15c.15-.08.29-.17.43-.26l2.12,3.4c.96,1.52,1.72,1.5,2.85,1.5-.95-.73-1.56-1.64-1.86-2.12l-2.18-3.49c.13-.11.25-.24.36-.36l1.54,2.47c.96,1.52,1.72,1.5,2.85,1.5-.95-.73-1.56-1.64-1.86-2.12l-1.79-2.87c.1-.18.18-.36.25-.55l.9,1.44h.03ZM65.12,30.16c0-1.07.78-1.92,1.05-2.16.07.02.13.03.2.05-.29.36-.81.95-.81,1.74,0,1.57,1.67,2.93,3.57,2.93-.01.13-.02.28-.02.42,0,.23.01.45.04.65-2.14,0-4.03-1.76-4.03-3.63ZM68.02,43.03v.04h.03c.6,0,.9-.04,1.09-.07.1,0,.17-.02.25-.02.16,0,.27,0,.27.21,0,.13-.15.33-.3.45-.22-.21-.53-.25-.98-.25-.21,0-.49.04-.64.06h-.05v.07c.03.12.05.28.05.49v.43c0,.51.07.8.25,1.02-.05.02-.12.03-.17.03-.32,0-.41-.14-.41-1.05,0-.18,0-.36-.02-.47v-.17l-.05.03c-.47.36-.96,1-.99,1.48-.14-.09-.3-.3-.3-.46,0-.26.39-.66.85-1.11l.26-.26.03-.03-.09-.02c-.1-.03-.28-.07-.44-.07-.51,0-.83.1-1.03.31-.07-.1-.13-.34-.13-.48,0-.09.02-.16.05-.19.04-.04.11-.04.18-.04h.01c.56,0,1.24.1,1.5.14h.03c.05-.06,1.12-1.5,1.4-2.26.06-.02.12-.04.23-.04.21,0,.27.14.33.36-.67.82-1.09,1.45-1.24,1.89h0l.03-.02ZM73.83,40.78c.11,0,.17.02.23.04.28.76,1.36,2.19,1.4,2.26h.03c.26-.04.94-.14,1.5-.14h.01c.06,0,.13,0,.18.04.04.04.05.1.05.19,0,.14-.06.38-.13.48-.2-.22-.52-.31-1.03-.31-.15,0-.34.05-.44.07h-.04l-.05.02.3.3c.46.46.85.85.85,1.11,0,.16-.15.36-.3.46-.03-.48-.52-1.12-.99-1.48l-.04-.03v.17c-.01.11-.02.29-.02.47,0,.92-.09,1.05-.41,1.05-.05,0-.12,0-.17-.03.18-.22.25-.51.25-1.02v-.43c0-.21.02-.36.04-.49v-.07h-.04c-.15-.02-.42-.06-.63-.06-.45,0-.76.04-.98.25-.15-.12-.3-.32-.3-.45,0-.19.12-.21.27-.21.08,0,.15,0,.25.02.19.03.49.07,1.09.07h.04v-.04c-.16-.44-.58-1.07-1.26-1.89.06-.22.12-.36.33-.36h.01ZM71.34,28.26c-.07-.28-.21-.56-.39-.78-.17-.2-.44-.43-.81-.43-.17,0-.45.08-.63.15-.07-.12-.2-.42-.2-.55s.23-.27.67-.27c.97,0,1.55.44,1.55,1.17,0,.26-.1.49-.2.7h0ZM71.77,27.31c-.03-.21-.11-.4-.23-.56,0-.19.08-.37.39-.22-.17.17-.04.47-.04.47,0,0,.34-.16.27-.38.5.12.14.79-.39.69ZM73.66,33.8c.03-.21.04-.43.04-.65,0-.12,0-.26-.01-.42,1.87-.03,3.52-1.38,3.52-2.93,0-.79-.51-1.39-.81-1.74.07-.01.13-.03.2-.05.27.24,1.05,1.09,1.05,2.16,0,1.86-1.86,3.59-3.99,3.63Z" />
    <path
       id="path20"
       class="cls-9"
       d="M91.35,26.89v18.81h-3.29v-18.81s3.29,0,3.29,0Z" />
  </g>
  <path
     id="path23"
     class="cls-3"
     d="M240.26,120.5c0,66.27-53.67,120-119.88,120S.5,186.77.5,120.5,54.16.5,120.37.5s119.88,53.73,119.88,120h.01Z" />
  <path
     id="path25"
     class="cls-11"
     d="M237.21,93.18H3.54c-2.05,8.78-3.16,17.92-3.16,27.32,0,9.91,1.22,19.53,3.49,28.73h233.02c2.26-9.21,3.49-18.83,3.49-28.73s-1.12-18.54-3.16-27.32h-.01Z" />
  <g
     id="Layer1002">
    <path
       id="path134"
       class="cls-6"
       d="M184.94,182.25l3.79.81.35.07.02.36.11,1.92.37.04.8-.03h0l.8-.03.35-.05-.02-1.88v-.36l.35-.09,3.69-.98.34-.09.18.3,1,1.65.32-.13h0l.71-.34.65-.4.3-.23-.9-1.67-.17-.32.27-.25,2.79-2.55.26-.23.3.18,1.65.99.23-.27.48-.61.19-.33h0l.17-.29.18-.36-1.62-1.07-.31-.2.12-.35,1.27-3.56.12-.34.36.03,1.91.18.06-.36h0l.13-.76.02-.78h0v-.33l-1.91-.23-.35-.04-.06-.35-.61-3.73-.06-.36.33-.15,1.78-.78-.1-.33-.28-.69-.19-.38h0l-.15-.33h0l-.16-.34-1.79.71-.33.13-.21-.29-2.29-3.08-.21-.29.22-.28,1.17-1.49-.26-.25-.27-.23-.05-.04-.24-.26-.6-.41h0l-.37-.24-1.26,1.43-.24.27-.32-.16-3.44-1.72-.32-.16.07-.35.35-1.83-.36-.12h0l-.74-.18h0l-.36-.09-.36-.03h-.04l-.4-.07-.4,1.84-.08.36h-.37l-3.87.06h-.35l-.1-.33-.56-1.82-.37.07-.37.09h0l-.35.08h0l-.78.21-.31.13.46,1.86.09.35-.32.18-3.31,1.83-.31.17-.25-.25-1.4-1.41-.31.24-.56.48-.52.54h0l-.27.3,1.33,1.37.26.27-.21.32-2.13,3.18-.2.3-.34-.11-1.84-.6-.15.3-.28.71-.24.74-.08.34,1.81.63.34.12-.03.36-.34,3.79-.03.36-.36.06-1.9.31.02.35h0v.38s.09.33.09.33h0l.16.81h0l.07.33,1.93-.21.34-.04.14.32,1.49,3.47.14.34-.29.22-1.53,1.17.19.31.42.62.51.62.24.25,1.62-1.07.29-.19.27.22,2.92,2.41.28.23-.15.33-.8,1.72.34.2.69.39.72.29.35.14.83-1.65.16-.32.35.08v-.03ZM188.18,183.9l-3.08-.66-.86,1.72-.19.39-.4-.16-.74-.3-.75-.3-.06-.03-.72-.41-.72-.41-.38-.21.18-.39.83-1.78-2.38-1.96-1.66,1.1-.33.22-.27-.28-.51-.54-.02-.03-.54-.66-.03-.03-.43-.63v-.02l-.43-.69-.22-.36.33-.25,1.57-1.2-1.21-2.82-2,.21-.42.04-.09-.41-.17-.75h0l-.16-.81h0l-.08-.36v-.09l-.02-.4h0l-.05-.77-.03-.42.42-.07,1.96-.32.27-3.06-1.86-.65-.4-.14.1-.41.19-.77v-.03l.25-.76v-.03l.31-.75.02-.04.34-.68.18-.36.38.12,1.88.61,1.72-2.57-1.38-1.42-.31-.31.29-.33.56-.63h0l.55-.58.03-.03.59-.5.02-.02.64-.49.33-.25.29.29,1.44,1.45,2.69-1.49-.48-1.9-.1-.39.38-.15.71-.29.06-.02.81-.22h.02l.37-.09h0l.37-.09h.02l.8-.16.41-.08.12.4.58,1.88,3.15-.04.42-1.92.1-.44.44.08.84.15.36.03h.07l.39.11h0l.77.19h.03l.76.25.4.13-.08.41-.36,1.89,2.8,1.4,1.29-1.47.27-.31.34.22.71.47h0l.65.45.08.07.26.28.27.22.03.02.57.55.3.29-.26.33-1.21,1.54,1.86,2.5,1.86-.74.41-.16.19.4.35.74h0l.15.33.19.39v.03l.31.72.02.05.22.75.11.39-.38.17-1.82.8.5,3.02,1.98.23.42.05v1.18h0l-.03.82v.06l-.14.79h0l-.13.79-.07.43-.43-.04-1.98-.18-1.03,2.87,1.66,1.09.35.23-.18.37-.36.74-.02.04-.18.29-.21.36-.04.06-.51.64h0l-.49.6-.26.3-.34-.2-1.69-1.01-2.26,2.07.91,1.7.19.35-.32.24-.64.49-.04.03-.69.42-.04.02-.73.35h-.03l-.72.3-.37.15-.21-.34-1.03-1.7-3,.8.02,1.93v.41l-.41.05-.79.1h-.04l-.82.04h0l-.83.03h-.06l-.8-.08-.4-.04-.02-.4-.11-1.96.03.02ZM204.94,178.18h0" />
    <path
       id="path136"
       class="cls-7"
       d="M193.32,202.72l3.49.56.3.05.08.3.29,1.12.47-.04.83-.19h.03l.82-.14.4-.13-.23-1.19-.06-.29.24-.18,2.91-2.11.26-.19.27.17.96.62.33-.4h0l.49-.65.41-.76.02-.03.24-.38-.98-.66-.25-.17.05-.3.57-3.56.05-.32.31-.07,1.11-.24-.07-.47-.14-.84-.19-.84-.13-.46-1.18.23-.3.06-.18-.25-2.04-2.9-.17-.25.15-.26.58-.97-.36-.27h0l-.74-.53h0l-.66-.44-.43-.23-.63,1.01-.17.26-.31-.05-3.54-.57-.32-.05-.07-.32-.24-1.12-.53.06-.83.14-.78.2-.45.13.23,1.12.06.3-.25.18-2.91,2.11-.25.18-.27-.16-.98-.59-.3.35-.46.73h0l-.45.7-.23.44.96.62.26.17-.05.3-.57,3.55-.05.31-.31.07-1.09.25.04.48.13.81.2.85.13.46,1.17-.23.29-.06.18.25,2.1,2.92.19.26-.17.27-.62.96.38.31.68.45h0l.74.47.4.22.66-.96.17-.24.29.05h.02ZM196.36,204.15l-2.9-.46-.73,1.06-.24.35-.37-.2-.77-.43h-.02l-.76-.49h0l-.71-.47-.03-.03-.73-.59-.33-.26.23-.35.67-1.05-1.73-2.41-1.3.26-.42.08-.12-.42-.25-.89v-.02l-.21-.87v-.03l-.15-.86v-.04l-.08-.9-.03-.4.4-.09,1.18-.27.47-2.94-1.06-.68-.36-.23.2-.38.44-.84.02-.04.46-.7h0l.48-.76.04-.06.58-.68.26-.3.34.2,1.06.63,2.41-1.75-.26-1.25-.09-.43.42-.12.88-.25h0l.81-.22h.04l.85-.15h.02l.96-.12.42-.05.09.42.26,1.23,2.92.47.69-1.11.23-.37.39.2.83.44.04.02.71.47h0l.75.54h0l.69.53.34.25-.21.36-.64,1.07,1.69,2.4,1.3-.26.42-.08.12.42.25.88v.02l.2.87v.03l.15.86h0l.13.93.06.43-.43.09-1.23.26-.48,2.94,1.11.75.38.25-.24.39-.47.74-.42.77-.04.06-.52.69h0l-.59.75-.26.33-.35-.23-1.04-.67-2.41,1.74.26,1.31.08.41-.4.13-.82.27-.07.02-.84.14-.86.2h-.07l-.89.09-.39.03-.1-.38-.32-1.21h-.02Z" />
    <path
       id="path138"
       class="cls-8"
       d="M150.61,213.7l.72.23.69.11h.04l.72.19.39.1v.4l-.09,3.29.61.08,1.03.08h0l1.02.02h.65l.28-3.24.04-.43.43-.03.77-.05.76-.05.73-.1h0l.8-.16.44-.09.13.43.98,3.11.61-.15.98-.28.94-.29.6-.23-.78-3.13-.1-.42.4-.16.69-.29.65-.35h.02l.71-.35h0l.68-.36.37-.2.26.33,1.99,2.54.52-.35.83-.55.84-.65.45-.38-1.86-2.72-.25-.37.34-.29.58-.49.51-.49.47-.56h0l.5-.59.28-.33.37.23,2.72,1.7.38-.47.61-.85h0l.54-.83h0l.35-.58-2.66-1.94-.34-.25.19-.38.34-.67h0l.33-.67.27-.67h0l.3-.75.16-.39.41.09,3.14.66.2-.54.25-1.02.25-1.03.08-.61-3.09-.81-.41-.11.04-.42.08-.8h0l.08-.79v-.74l.02-.76v-.42l.42-.06,3.24-.49-.05-.61h0l-.09-1.08h0l-.1-.98-.12-.59-3.26.29-.43.04-.1-.42-.17-.74h0l-.16-.72-.22-.73-.28-.7-.17-.41.39-.21,2.85-1.57-.23-.55-.46-.9-.49-.88h0l-.31-.55-2.93,1.29-.36.16-.24-.31-.22-.29-.04-.05-.2-.34-.42-.61h0l-.43-.56h0l-.48-.65-.24-.32.27-.3,2.13-2.42-.42-.48-.7-.7h0l-.73-.69h0l-.37-.32-.09-.07-2.31,2.28-.29.29-.34-.24-.65-.45h0l-.59-.45-.63-.43-.65-.39-.36-.21.15-.39,1.13-2.98-.52-.29-.93-.4h0l-.95-.41h0l-.57-.21-1.37,2.91-.19.4-.42-.13-.74-.24-.7-.17-.75-.18-.71-.11-.43-.07.02-.44.11-3.21-.62-.08h0l-.57-.08h0l-.48-.06h0l-1.03-.07h-.57l-.32,3.26-.04.42-.42.03-.76.05-.76.1h0l-.79.1-.72.11-.41.06-.14-.39-1.06-3.04-.6.12h0l-.93.24-.97.33h0l-.54.2.78,3.13.1.4-.38.17-1.43.64-.65.36h0l-.67.37-.36.2-.26-.32-2-2.49-.53.35-.83.55-.77.61h0l-.49.38,1.85,2.71.25.37-.34.29-.57.48h0l-.52.5-.47.56h0l-.49.58-.28.33-.36-.22-2.77-1.71-.41.53-.55.83h0l-.55.85h0l-.35.58,2.61,1.87.35.25-.19.38-.33.66-.28.68h0l-.58,1.44-.16.39-.41-.09-3.19-.67-.21.59-.25,1.03h0l-.25,1.02-.07.58,3.14.87.41.11-.04.42-.08.8h0l-.06.75-.06.75h0v1.15s-.43.06-.43.06l-3.17.46.05.61.04.54h0l.04.54h0l.1,1,.11.64,3.24-.24.43-.03.1.42.17.74h0l.17.72.23.68.24.7.13.39-.36.2-2.85,1.62.27.57h0l.41.91.48.86.31.5,2.94-1.29.4-.18.23.37.2.32.2.26.02.03.42.61h0l.48.64.48.57.28.33-.28.32-2.13,2.42.42.47.67.67.82.66h0l.48.39,2.23-2.23.32-.32.35.29.57.48.6.42.66.39h0l.66.4.36.22-.16.39-1.19,3,.53.26h0l.9.44.95.35h0l.61.22,1.41-2.84.18-.36.39.09.72.17h.03l-.1-.08ZM151.07,214.9l-.74-.24-.31-.08-1.43,2.89-.2.4-.42-.15-1.02-.37h0l-.97-.36-.05-.02-.94-.46h0l-.94-.46-.41-.2.17-.43,1.2-3.03-.3-.18h0l-.66-.39-.03-.02-.65-.46-.04-.03-.23-.2-2.23,2.22-.32.32-.35-.28-.83-.67h0l-.83-.67-.04-.04-.7-.7-.02-.02-.74-.82-.3-.33.29-.33,2.14-2.43-.22-.26-.02-.02-.49-.65v-.02l-.43-.61-.22-.28v-.02l-2.95,1.3-.4.18-.23-.37-.54-.89v-.02l-.5-.88-.02-.04-.42-.93h0l-.46-.99-.19-.42.4-.23,2.89-1.64-.11-.32-.23-.7v-.05l-.19-.75h0l-.07-.33-3.26.24-.45.03-.08-.44-.2-1.11v-.04l-.11-1.02h0l-.04-.55h0l-.04-.54-.09-1.07-.04-.47.47-.07,3.21-.46v-.37l.06-.75.06-.75h0l.04-.4-3.15-.87-.42-.12.05-.43.13-1.03v-.06l.27-1.05h0l.25-1.05.02-.05.37-1.03.15-.41.42.09,3.21.68.43-1.05h0l.29-.7.02-.03.15-.3-2.64-1.89-.38-.27.24-.4.59-.97h0l.56-.88h0l.57-.86.02-.03.68-.89.27-.36.38.24,2.79,1.72.22-.25h0l.49-.58.04-.04.53-.51.02-.02.25-.21-1.86-2.73-.26-.39.37-.29.86-.67h0l.79-.62.03-.02.84-.56.91-.6.38-.25.28.35,2.03,2.52.31-.17h0l.67-.36.04-.02,1.06-.47-.78-3.15-.11-.43.42-.15.96-.35h0l1.02-.35h.04l.93-.25h.02l1.05-.22.43-.09.14.41,1.06,3.06.32-.05h0l.79-.1h0l.78-.1h.04l.35-.02.32-3.24.04-.42.42-.03.54-.04h.6l1.03.08h.03l.51.07h0l.57.08h0l1.07.14.45.06-.02.45-.11,3.23.3.05h.04l.77.2.72.18h.04l.34.12,1.38-2.92.19-.41.43.15,1.02.37h.03l.95.42h0l.95.41.05.02.93.52.38.21-.15.4-1.14,2.99.3.18.03.02.65.45h0l.59.45.3.21,2.32-2.3.31-.3.34.26.45.34.02.02.39.33.02.02.76.71h0l.71.71.02.02.74.82.3.33-.29.33-2.16,2.45.24.32h0l.44.57.02.02.43.63.02.03.16.27,2.98-1.31.41-.18.22.4.53.95h0l.49.88v.02l.48.94.02.03.41.98.17.41-.39.22-2.85,1.58.12.31.02.04.23.76v.03l.18.74h0l.07.32,3.28-.29.45-.04.09.44.21,1.05v.04l.11,1.03h0l.09,1.09h0l.09,1.08.04.47-.46.07-3.28.5v.34h0v.8s-.09.8-.09.8h0l-.04.38,3.11.81.43.11-.06.44-.14,1.08v.05l-.27,1.05-.26,1.05-.02.05-.35.97-.15.41-.42-.09-3.15-.66-.14.36h0l-.29.7v.03l-.35.68h0l-.15.3,2.69,1.96.37.27-.24.39-.59.97h0l-.56.87v.02l-.63.85-.02.02-.67.83-.28.34-.37-.23-2.73-1.7-.22.26h0l-.49.58-.04.04-.53.52-.02.02-.25.21,1.86,2.73.25.37-.35.29-.81.68h0l-.86.68-.03.02-.84.56-.91.6-.38.25-.28-.36-2.01-2.57-.31.16h-.02l-.71.35-.67.36-.05.02-.32.13.79,3.14.11.43-.42.16-1.03.39h-.03l-.95.31h0l-1,.29h0l-1.06.27-.45.12-.14-.45-.99-3.13-.36.07h-.03l-.78.11h-.04l-.77.05-.34.02-.28,3.25-.04.45h-.45l-1.11.03h-.02l-1.05-.02h-.03l-1.03-.08h-.03l-1.08-.15-.44-.06v-.44l.09-3.33-.32-.08-.7-.11-.07-.02-.06.02ZM171.93,212.7h0" />
  </g>
  <g
     class="cls-15"
     id="g6">
    <g
       class="cls-15"
       id="g5">
      <text
         class="cls-14"
         transform="translate(33.39 166.2)"
         id="text5"><tspan
           class="cls-17"
           x="0"
           y="0"
           id="tspan1">Z</tspan><tspan
           x="4.98"
           y="0"
           id="tspan2">ertifi</tspan><tspan
           class="cls-2"
           x="26.24"
           y="0"
           id="tspan3">k</tspan><tspan
           class="cls-1"
           x="31.06"
           y="0"
           id="tspan4">a</tspan><tspan
           x="36.22"
           y="0"
           id="tspan5">t Nummer:</tspan></text>
    </g>
  </g>
  <g
     class="cls-15"
     id="g11">
    <g
       class="cls-15"
       id="g10">
      <text
         class="cls-13"
         transform="translate(33.39,180.4)"
         id="text10"><tspan
           x="0"
           y="0"
           id="tspan6">BSI-IGZ-0478-2022</tspan></text>
    </g>
  </g>
  <g
     class="cls-15"
     id="g13">
    <g
       class="cls-15"
       id="g12">
      <text
         class="cls-14"
         transform="translate(33.39,194.5)"
         id="text11"><tspan
           x="0"
           y="0"
           id="tspan11">Gültig bis: 24.05.2025</tspan></text>
    </g>
  </g>
  <g
     class="cls-15"
     id="g65">
    <g
       class="cls-15"
       id="g36">
      <path
         class="cls-12"
         d="M51.59,109.3h-1.3v-1.6h4.7v1.6h-1.3v7.9h1.3v1.6h-4.8v-1.6h1.3v-7.9h.1Z"
         id="path13" />
      <path
         class="cls-12"
         d="M62.09,110.1c-.3-.2-.9-.8-2-.8s-1.5.4-1.5,1,.3,1,1.2,1.6l1.2.7c1.5.9,2.2,1.8,2.2,3.2s-1.1,3.1-3.8,3.1-2.7-.8-3.1-1.1l.7-1.8c.4.4,1.2,1,2.3,1s1.7-.5,1.7-1-.3-1.1-1.2-1.7l-1.2-.8c-1.5-1-2.2-1.8-2.2-3.3s1.3-2.8,3.5-2.8,2.4.6,2.7.9l-.7,1.7.2.1h0Z"
         id="path15" />
      <path
         class="cls-12"
         d="M69.69,119c-3,0-5-2-5-5.7s2.1-5.7,5-5.7,5,2,5,5.7-2.1,5.7-5,5.7ZM69.69,109.4c-1.7,0-2.8,1.3-2.8,3.9s1,3.9,2.8,3.9,2.8-1.3,2.8-3.9-1.1-3.9-2.8-3.9Z"
         id="path17" />
      <path
         class="cls-12"
         d="M82.19,117.1h3.8v1.6h-6.2v-1.3c3.3-3.8,4-4.6,4-6s-.5-1.6-1.5-1.6-1.8.6-2.1,1l-.7-1.4c.4-.4,1.4-1.3,3.1-1.3s3.2,1.1,3.2,3.1-1.2,3.4-3.6,5.8v.1Z"
         id="path19" />
      <path
         class="cls-12"
         d="M94.29,109.8l-4.1,9h-2.2l4.1-8.7h-4.5v-1.7h6.6v1.4s.1,0,.1,0Z"
         id="path21" />
      <path
         class="cls-12"
         d="M98.69,119c-2.1,0-3.4-1.7-3.4-5.4s1.4-5.4,3.5-5.4,3.4,1.7,3.4,5.4-1.4,5.4-3.5,5.4ZM98.79,109.9c-.8,0-1.4,1-1.4,3.7s.5,3.6,1.4,3.6,1.4-.8,1.4-3.6-.5-3.7-1.4-3.7Z"
         id="path22" />
      <path
         class="cls-12"
         d="M106.69,119c-2.1,0-3.4-1.7-3.4-5.4s1.4-5.4,3.5-5.4,3.4,1.7,3.4,5.4-1.4,5.4-3.5,5.4ZM106.79,109.9c-.8,0-1.4,1-1.4,3.7s.5,3.6,1.4,3.6,1.4-.8,1.4-3.6-.5-3.7-1.4-3.7Z"
         id="path24" />
      <path
         class="cls-12"
         d="M116.09,117.2h2.1v1.6h-6.2v-1.6h2.1v-6.8l-2,.7-.4-1.6,3-1.1h1.4v8.8Z"
         id="path26" />
      <path
         class="cls-12"
         d="M124.19,114.7h-4.5v-1.6h4.5v1.6Z"
         id="path27" />
      <path
         class="cls-12"
         d="M132.79,108.9l-4.9,8h5.2v1.8h-8.1v-1.2l5-8h-4.7v-1.8h7.4v1.2h.1Z"
         id="path28" />
      <path
         class="cls-12"
         d="M140.39,115.5h-4.2c.1,1.3.8,1.8,2.1,1.8s1.6-.5,1.9-.6l.5,1.4c-.2.2-.9.9-2.8.9s-3.6-1.2-3.6-4.1,1.6-4,3.6-4,2.7,1.1,2.7,3.1,0,1.2-.1,1.5h-.1,0ZM136.19,114.1h2.5v-.4c0-.8-.4-1.4-1.1-1.4s-1.4.6-1.4,1.7v.1Z"
         id="path29" />
      <path
         class="cls-12"
         d="M146.59,112.7h-.6c-.9,0-1.4.4-1.7.8v5.4h-2v-7.8h1.9v1.1h0c.4-.7.9-1.2,1.9-1.2s.6,0,.6,0v1.8l-.1-.1h0Z"
         id="path30" />
      <path
         class="cls-12"
         d="M152.19,112.6h-1.8v3.1c0,1.1.3,1.5,1,1.5s.7,0,.8-.1v1.6s-.5.3-1.3.3c-1.7,0-2.5-.8-2.5-3v-3.3h-1.1v-1.4l1.1-.2.2-2.2h1.8v2.1h2l-.2,1.6Z"
         id="path31" />
      <path
         class="cls-12"
         d="M154.79,109.7c-.7,0-1.2-.4-1.2-1.2s.5-1.2,1.2-1.2,1.2.4,1.2,1.2-.5,1.2-1.2,1.2ZM155.89,118.8h-2v-7.8h2v7.8Z"
         id="path32" />
      <path
         class="cls-12"
         d="M162.19,112.6h-1.7v6.2h-2v-6.2h-1.1v-1.4l1.1-.2v-.7c0-2,1-3.1,2.9-3.1s1.2.2,1.3.3l-.3,1.6s-.4-.2-.8-.2c-.7,0-1.1.4-1.1,1.3v.7h1.9l-.2,1.6v.1h0ZM164.59,109.7c-.7,0-1.2-.4-1.2-1.2s.5-1.2,1.2-1.2,1.2.4,1.2,1.2-.5,1.2-1.2,1.2ZM165.59,118.8h-2v-7.8h2v7.8Z"
         id="path33" />
      <path
         class="cls-12"
         d="M171.89,114.6l2.6,4.2h-2.4l-1.9-3.1h-.6v3.1h-2v-11.3l2-.2v6.7h.5l1.9-3h2.2l-2.4,3.6h.1,0Z"
         id="path34" />
      <path
         class="cls-12"
         d="M178.69,114.3h.3v-.3c0-1-.4-1.5-1.3-1.5s-1.6.5-1.8.8l-.6-1.3c.4-.4,1.3-1.2,2.9-1.2s2.8,1,2.8,3.3v2.6c0,.9,0,1.6.1,2.1h-1.9v-.9h0c-.3.5-.8,1.1-1.9,1.1s-2.2-.9-2.2-2.3,1.6-2.4,3.6-2.4h0ZM177.89,117.4c.6,0,.9-.3,1.1-.5v-1.4h-.4c-1,0-1.6.3-1.6,1s.4,1,.8,1l.1-.1h0Z"
         id="path35" />
      <path
         class="cls-12"
         d="M187.19,112.6h-1.8v3.1c0,1.1.3,1.5,1,1.5s.7,0,.8-.1v1.6s-.5.3-1.3.3c-1.7,0-2.5-.8-2.5-3v-3.3h-1.1v-1.4l1.1-.2.2-2.2h1.8v2.1h2l-.2,1.6Z"
         id="path36" />
    </g>
    <g
       class="cls-15"
       id="g64">
      <path
         class="cls-12"
         d="M35.49,129.8h.2v-.2c0-.8-.3-1.1-1-1.1s-1.2.4-1.4.6l-.5-1c.3-.3,1-.9,2.2-.9s2.1.8,2.1,2.4v3.6h-1.4v-.6h0c-.2.4-.6.8-1.4.8s-1.6-.7-1.6-1.8,1.2-1.8,2.7-1.8h.1ZM34.89,132.2c.5,0,.7-.2.9-.4v-1.1h-.3c-.8,0-1.2.3-1.2.7s.3.7.6.7v.1Z"
         id="path37" />
      <path
         class="cls-12"
         d="M40.19,130.8c0,.9.3,1.2.9,1.2s.8-.2,1-.4v-4.3h1.5v5.8h-1.4v-.7h0c-.2.3-.7.8-1.7.8s-1.9-.8-1.9-2.3v-3.7h1.5v3.4l.1.2Z"
         id="path38" />
      <path
         class="cls-12"
         d="M48.39,128.6h-1.3v4.6h-1.5v-4.6h-.8v-1h.8v-.6c0-1.5.8-2.3,2.2-2.3s.9.2,1,.2l-.2,1.2s-.3-.1-.6-.1c-.5,0-.8.3-.8,1v.5h1.5v1.2l-.3-.1h0Z"
         id="path39" />
      <path
         class="cls-12"
         d="M54.29,127.2c.5,0,.8.1,1,.3v-2.7h1.5c0-.1,0,8.5,0,8.5h-1.4v-.7h0c-.1.2-.5.8-1.6.8s-2.2-1-2.2-3,1.3-3.1,2.7-3.1v-.1h0ZM54.29,132c.5,0,.8-.2,1-.4v-3c-.2-.1-.4-.2-.8-.2-.8,0-1.4.6-1.4,1.8s.5,1.8,1.1,1.8h.1Z"
         id="path40" />
      <path
         class="cls-12"
         d="M62.69,130.7h-3.1c0,1,.6,1.4,1.6,1.4s1.2-.3,1.4-.5l.3,1.1c-.2.2-.7.7-2.1.7s-2.7-.9-2.7-3.1,1.2-3,2.7-3,2,.8,2,2.3,0,.9,0,1.1h-.1ZM59.59,129.7h1.9v-.3c0-.6-.3-1-.8-1s-1,.4-1.1,1.3Z"
         id="path41" />
      <path
         class="cls-12"
         d="M67.39,128.6h-.4c-.7,0-1.1.3-1.3.6v4.1h-1.5v-5.8h1.4v.8h0c.3-.5.7-.9,1.5-.9s.4,0,.5,0v1.3l-.2-.1Z"
         id="path42" />
      <path
         class="cls-12"
         d="M74.89,129h0c.8.2,1.7.8,1.7,1.9s-1,2.3-3.3,2.3h-2.2v-8.3h2.1c2.3,0,3.2.8,3.2,2.2s-.8,1.6-1.5,1.8c0,0,0,.1,0,.1ZM73.19,126.2h-.5v2.2h.4c1.1,0,1.6-.4,1.6-1.2s-.4-1-1.5-1ZM73.39,129.7h-.6v2.2h.6c1.2,0,1.6-.3,1.6-1.1s-.6-1.1-1.6-1.1h0Z"
         id="path43" />
      <path
         class="cls-12"
         d="M80.29,129.8h.2v-.2c0-.8-.3-1.1-1-1.1s-1.2.4-1.4.6l-.5-1c.3-.3,1-.9,2.2-.9s2.1.8,2.1,2.4v3.6h-1.4v-.6h0c-.2.4-.6.8-1.4.8s-1.6-.7-1.6-1.8,1.2-1.8,2.7-1.8h.1ZM79.69,132.2c.5,0,.7-.2.9-.4v-1.1h-.3c-.8,0-1.2.3-1.2.7s.3.7.6.7v.1Z"
         id="path44" />
      <path
         class="cls-12"
         d="M86.59,128.8c-.2-.1-.6-.4-1.2-.4s-.8.2-.8.4.2.4.8.7l.3.2c.9.4,1.5.9,1.5,1.9s-.8,1.8-2.2,1.8-1.6-.4-1.9-.6l.5-1.2c.2.2.7.6,1.4.6s.9-.2.9-.4-.2-.5-.9-.8l-.3-.2c-.8-.4-1.3-.9-1.3-1.8s.9-1.7,2.1-1.7,1.4.4,1.6.5l-.4,1.1-.1-.1Z"
         id="path45" />
      <path
         class="cls-12"
         d="M89.09,126.4c-.5,0-.9-.3-.9-.9s.4-.9.9-.9.9.3.9.9-.4.9-.9.9ZM89.89,133.2h-1.5v-5.8h1.5v5.8Z"
         id="path46" />
      <path
         class="cls-12"
         d="M94.49,128.8c-.2-.1-.6-.4-1.2-.4s-.8.2-.8.4.2.4.8.7l.3.2c.9.4,1.5.9,1.5,1.9s-.8,1.8-2.2,1.8-1.6-.4-1.9-.6l.5-1.2c.2.2.7.6,1.4.6s.9-.2.9-.4-.2-.5-.9-.8l-.3-.2c-.8-.4-1.3-.9-1.3-1.8s.9-1.7,2.1-1.7,1.4.4,1.6.5l-.4,1.1-.1-.1Z"
         id="path47" />
      <path
         class="cls-12"
         d="M101.19,133.2h-1.2l-2.1-5.8h1.6l1.2,3.9h0l1.1-3.9h1.5l-2.1,5.8h0Z"
         id="path48" />
      <path
         class="cls-12"
         d="M106.39,133.3c-1.5,0-2.6-.9-2.6-3.1s1.3-3.1,2.7-3.1,2.6.9,2.6,3.1-1.3,3.1-2.7,3.1ZM106.49,128.5c-.6,0-1.1.5-1.1,1.8s.5,1.7,1.1,1.7,1.1-.5,1.1-1.7-.5-1.8-1.1-1.8Z"
         id="path49" />
      <path
         class="cls-12"
         d="M113.89,133.2v-3.5c0-.9-.3-1.2-.9-1.2s-.8.2-1.1.4v4.3h-1.5v-5.8h1.4v.6h0c.2-.3.7-.8,1.7-.8s1.9.8,1.9,2.3v3.7h-1.5Z"
         id="path50" />
      <path
         class="cls-12"
         d="M120.19,126.1h-1v-1.2h3.5v1.2h-1v5.9h1v1.2h-3.6v-1.2h1v-5.9h.1Z"
         id="path51" />
      <path
         class="cls-12"
         d="M129.99,126.2h-2.4v7h-1.6v-7h-2.4v-1.3h6.5v1.3h-.1Z"
         id="path52" />
      <path
         class="cls-12"
         d="M133.69,130.1h-3.3v-1.2h3.3v1.2Z"
         id="path53" />
      <path
         class="cls-12"
         d="M139.09,124.8c1.5,0,2.2.6,2.4.8l-.6,1.2c-.2-.2-.8-.7-1.8-.7s-2.6.9-2.6,2.9.9,3,2.4,3,.6,0,.9-.1v-1.8h-1.4v-1.3h2.9v3.8c-.3.2-1,.8-2.6.8s-3.9-1.1-3.9-4.3,2.1-4.2,4.2-4.2l.1-.1h0Z"
         id="path54" />
      <path
         class="cls-12"
         d="M146.19,128.6h-.4c-.7,0-1.1.3-1.3.6v4.1h-1.5v-5.8h1.4v.8h0c.3-.5.7-.9,1.5-.9s.4,0,.5,0v1.3l-.2-.1Z"
         id="path55" />
      <path
         class="cls-12"
         d="M148.69,130.8c0,.9.3,1.2.9,1.2s.8-.2,1-.4v-4.3h1.5v5.8h-1.4v-.7h0c-.2.3-.7.8-1.7.8s-1.9-.8-1.9-2.3v-3.7h1.5v3.4l.1.2h0Z"
         id="path56" />
      <path
         class="cls-12"
         d="M157.19,133.2v-3.5c0-.9-.3-1.2-.9-1.2s-.8.2-1.1.4v4.3h-1.5v-5.8h1.4v.6h0c.2-.3.7-.8,1.7-.8s1.9.8,1.9,2.3v3.7h-1.5,0Z"
         id="path57" />
      <path
         class="cls-12"
         d="M162.59,127.2c.5,0,.8.1,1,.3v-2.7h1.5c0-.1,0,8.5,0,8.5h-1.4v-.7h0c-.1.2-.5.8-1.6.8s-2.2-1-2.2-3,1.3-3.1,2.7-3.1v-.1h0ZM162.59,132c.5,0,.8-.2,1-.4v-3c-.2-.1-.4-.2-.8-.2-.8,0-1.4.6-1.4,1.8s.5,1.8,1.1,1.8h.1,0Z"
         id="path58" />
      <path
         class="cls-12"
         d="M169.79,128.8c-.2-.1-.6-.4-1.2-.4s-.8.2-.8.4.2.4.8.7l.3.2c.9.4,1.5.9,1.5,1.9s-.8,1.8-2.2,1.8-1.6-.4-1.9-.6l.5-1.2c.2.2.7.6,1.4.6s.9-.2.9-.4-.2-.5-.9-.8l-.3-.2c-.8-.4-1.3-.9-1.3-1.8s.9-1.7,2.1-1.7,1.4.4,1.6.5l-.4,1.1-.1-.1h0Z"
         id="path59" />
      <path
         class="cls-12"
         d="M175.39,128.9c-.1-.1-.5-.4-1-.4-.9,0-1.6.5-1.6,1.7s.6,1.8,1.4,1.8,1-.2,1.2-.4l.4,1.1c-.3.2-.7.6-1.9.6s-2.7-.8-2.7-3.1,1.5-3,3-3,1.4.3,1.6.5l-.4,1.2h0Z"
         id="path60" />
      <path
         class="cls-12"
         d="M180.49,133.2v-3.5c0-.9-.3-1.2-.9-1.2s-.8.2-1.1.4v4.3h-1.5v-8.5h1.5c0-.1,0,3.2,0,3.2h0c.2-.3.7-.7,1.6-.7s1.9.8,1.9,2.3v3.7h-1.5Z"
         id="path61" />
      <path
         class="cls-12"
         d="M184.89,130.8c0,.9.3,1.2.9,1.2s.8-.2,1-.4v-4.3h1.5v5.8h-1.4v-.7h0c-.2.3-.7.8-1.7.8s-1.9-.8-1.9-2.3v-3.7h1.5v3.4l.1.2h0Z"
         id="path62" />
      <path
         class="cls-12"
         d="M193.09,128.6h-1.3v2.3c0,.9.2,1.1.8,1.1s.5,0,.6-.1v1.2s-.4.2-1,.2c-1.3,0-1.9-.6-1.9-2.3v-2.5h-.8v-1l.8-.2.2-1.6h1.3v1.6h1.5v1.2l-.2.1h0Z"
         id="path63" />
      <path
         class="cls-12"
         d="M198.29,128.2l-2.3,3.7h2.5v1.2h-4.5v-.9l2.4-3.7h-2.3v-1.2h4.2v.9h0Z"
         id="path64" />
    </g>
  </g>
</svg>
